<?xml version="1.0" encoding="UTF-8" standalone="no"?>
<svg
   version="1.0"
   width="200pt"
   height="200pt"
   viewBox="0 0 200 200"
   preserveAspectRatio="xMidYMid"
   id="svg21"
   xmlns="http://www.w3.org/2000/svg"
   xmlns:svg="http://www.w3.org/2000/svg">
  <defs
     id="defs21" />
  <path
     d="M 83.8,9.5 C 26.4,20.4 -6,78.4 14.4,134 c 2.5,6.7 7.9,15.9 14,23.6 33.1,42.5 98.2,46 136.7,7.5 38.5,-38.5 35,-103.6 -7.5,-136.7 C 140.8,15.2 124.8,9.3 103.5,8.5 95.4,8.2 89,8.5 83.8,9.5 Z m 29.2,3 c 36.6,5.5 64.7,31.5 73.7,68.1 2.4,10 2.3,29.7 -0.1,39.4 -8.6,33.6 -33,58 -66.6,66.6 -9.7,2.4 -29.4,2.5 -39.4,0.1 C 54.4,180.2 33.4,164 21.6,141.1 8.3,115.1 7.9,87.4 20.5,61.3 33.4,34.7 58.6,16.5 88.6,12.1 c 8.9,-1.3 14,-1.2 24.4,0.4 z"
     id="path1"
     style="fill:currentColor;stroke:none;stroke-width:0.1" />
  <path
     d="m 92.5,18 c -2.2,2.4 -1.7,6.7 2,18.7 2.6,8.5 4.2,10.2 8.5,8.8 2.2,-0.7 3.3,-3.8 5.7,-17.2 2.1,-11.7 1.7,-12.3 -7.7,-12.3 -5.4,0 -7,0.4 -8.5,2 z"
     id="path2"
     style="fill:currentColor;stroke:none;stroke-width:0.1" />
  <path
     d="M 71.3,23.3 C 67.5,25.5 66,27 66,28.6 66,31.1 83.1,49 85.5,49 88.3,49 91,47 91,45 91,41.4 84.9,23.9 82.9,21.9 80.3,19.3 77.4,19.6 71.3,23.3 Z"
     id="path3"
     style="fill:currentColor;stroke:none;stroke-width:0.1" />
  <path
     d="m 118.1,21.9 c -1.1,1.1 -3.5,6.8 -5.5,12.8 l -3.5,10.8 2,1.7 c 1.2,1 2.9,1.8 3.8,1.8 2.1,0 20.1,-18 20.1,-20.1 0,-2 -2.4,-4.1 -7.7,-6.8 -5.2,-2.6 -6.8,-2.6 -9.2,-0.2 z"
     id="path4"
     style="fill:currentColor;stroke:none;stroke-width:0.1" />
  <path
     d="m 50.6,36.9 c -3,3 -4.7,5.5 -4.3,6.4 0.6,1.6 15.3,11.6 21.1,14.3 3.5,1.7 3.6,1.7 6,-0.6 2.4,-2.1 2.4,-2.4 1,-5.2 C 71.7,46.5 63.8,34.5 62.2,33.2 59,30.7 55.6,31.8 50.6,36.9 Z"
     id="path5"
     style="fill:currentColor;stroke:none;stroke-width:0.1" />
  <path
     d="m 137.8,34.3 c -1.1,1.2 -4.4,6.3 -7.4,11.2 l -5.4,8.9 2.4,2.4 c 1.7,1.7 3,2.2 4.5,1.7 3.8,-1.2 23.1,-14.4 23.1,-15.8 0,-0.8 -2.2,-3.5 -5,-6.1 -5.6,-5.2 -9,-5.9 -12.2,-2.3 z"
     id="path6"
     style="fill:currentColor;stroke:none;stroke-width:0.1" />
  <path
     d="M 37.2,47.8 C 33.1,51.9 29.8,57.1 30.4,58.5 31.1,60.4 52.6,71 55.6,71 57.6,71 61,68.2 61,66.5 61,65.5 54.9,58 48.6,51.2 43.3,45.6 40.3,44.7 37.2,47.8 Z"
     id="path7"
     style="fill:currentColor;stroke:none;stroke-width:0.1" />
  <path
     d="m 154,49.2 c -4.9,5 -14,16.4 -14,17.5 0,1.6 3.5,4.3 5.6,4.3 2.9,0 24.3,-10.7 25,-12.5 0.6,-1.4 -2.7,-6.6 -6.8,-10.7 -2.7,-2.7 -6.2,-2.2 -9.8,1.4 z"
     id="path8"
     style="fill:currentColor;stroke:none;stroke-width:0.1" />
  <path
     d="M 25.1,66.7 C 22.5,68.9 20,79.4 21.6,81 c 1.3,1.3 24.8,3.3 27.8,2.4 2.5,-0.8 3.6,-2.2 3.6,-5 0,-1.7 -2.3,-3.3 -10.9,-7.7 -11.7,-6.2 -13.8,-6.6 -17,-4 z"
     id="path9"
     style="fill:currentColor;stroke:none;stroke-width:0.1" />
  <path
     d="m 158.8,70.7 c -9.9,5.1 -10.8,5.9 -10.8,8.5 0,4.4 3.1,5.1 17.8,3.9 6.9,-0.6 13,-1.5 13.6,-2.1 1.6,-1.6 -0.9,-12.1 -3.5,-14.3 -3.2,-2.6 -5.5,-2.1 -17.1,4 z"
     id="path10"
     style="fill:currentColor;stroke:none;stroke-width:0.1" />
  <path
     d="M 69.2,68.7 C 68.5,69 67.3,70.4 66.5,72 l -1.4,2.8 36,29.8 c 19.8,16.5 36.5,30 37.2,30.2 1.9,0.4 4.6,-2 4.9,-4.4 0.2,-1.7 -7.1,-8.3 -36,-32.3 C 87.3,81.6 70.9,68 70.7,68.1 c -0.1,0 -0.8,0.3 -1.5,0.6 z"
     id="path11"
     style="fill:currentColor;stroke:none;stroke-width:0.1" />
  <path
     d="m 115.8,79.3 c -14.7,10.3 -15.7,11.2 -14.2,12.8 1.5,1.6 2.4,1.1 15.2,-8.3 17.1,-12.7 17.7,-13.2 16,-14.5 -1,-0.8 -5.3,1.7 -17,10 z"
     id="path12"
     style="fill:currentColor;stroke:none;stroke-width:0.1" />
  <path
     d="m 122.1,85.2 c -7.8,6.1 -14,11.6 -13.8,12.1 0.2,0.6 1,1.5 1.9,2 2.3,1.5 29.3,-22 27.7,-23.9 -0.6,-0.8 -1.3,-1.4 -1.4,-1.4 -0.1,0 -6.6,5 -14.4,11.2 z"
     id="path13"
     style="fill:currentColor;stroke:none;stroke-width:0.1" />
  <path
     d="m 21.2,88.6 c -1.9,1.3 -2.2,2.5 -2.2,7.8 0,9.1 0.5,9.3 14.2,6.1 13,-3.1 15.8,-4.5 15.8,-8 0,-2.7 -2.2,-3.6 -14.5,-5.5 -3.8,-0.6 -7.9,-1.3 -9.1,-1.5 -1.1,-0.3 -3,0.2 -4.2,1.1 z"
     id="path14"
     style="fill:currentColor;stroke:none;stroke-width:0.1" />
  <path
     d="m 164.5,89.7 c -10.4,1.5 -12.5,2.4 -12.5,5.4 0,2.7 3.3,4.4 14.3,7.4 13.4,3.6 14,3.5 15,-4 0.7,-5.7 0.6,-6.1 -1.8,-8.3 -1.5,-1.2 -3.1,-2.2 -3.8,-2.1 -0.7,0.1 -5.7,0.8 -11.2,1.6 z"
     id="path15"
     style="fill:currentColor;stroke:none;stroke-width:0.1" />
  <path
     d="m 80,104.6 c -17,12.3 -17.7,13.3 -19,25.6 -0.9,9 -2.2,11.2 -7.1,11 -3.8,-0.1 -10.7,4.2 -12,7.6 -0.5,1.3 -1.6,2.3 -2.6,2.1 -3.9,-0.3 -4.6,0 -3.3,1.6 2.5,3.1 4.8,2.7 11.2,-1.8 3.5,-2.4 6.8,-4.2 7.5,-4 0.6,0.2 2.7,-0.3 4.7,-1.1 2.7,-1.1 4.2,-2.7 5.6,-5.8 1.1,-2.4 2,-5.1 2,-6 0,-0.9 1.8,-3.8 4,-6.3 2.7,-3.2 4,-5.6 4,-7.6 0,-3.3 1.4,-4.9 12.3,-13.6 6.6,-5.3 6.8,-5.6 5.1,-7.4 -0.9,-1 -1.8,-1.9 -1.8,-1.9 -0.1,0 -4.8,3.5 -10.6,7.6 z m -9.2,17.8 c 0.6,2.9 -1.5,4.3 -3.5,2.4 -1.4,-1.4 -1.4,-2 -0.3,-3.3 1.6,-1.9 3.4,-1.5 3.8,0.9 z"
     id="path16"
     style="fill:currentColor;stroke:none;stroke-width:0.1" />
  <path
     d="m 87.9,112.2 c -7.6,6 -11,9.3 -12.5,12.5 l -2.1,4.3 h 2.6 c 1.9,0 6.1,-3 14.9,-10.6 6.7,-5.8 12,-10.9 11.7,-11.5 -0.4,-0.5 -1.4,-1.3 -2.4,-1.9 -1.5,-0.8 -3.8,0.5 -12.2,7.2 z"
     id="path17"
     style="fill:currentColor;stroke:none;stroke-width:0.1" />
  <path
     d="m 146.1,122.7 c -2.1,2.6 -2.7,4 -2,4.9 2.3,2.8 -3.2,9.4 -6.7,8 -1.4,-0.5 -5.4,3.2 -7.8,7.2 -0.8,1.4 1.1,9.3 2.3,9.1 0.7,0 26.4,-30.7 26.9,-32 0.2,-0.5 -1.9,-0.9 -4.6,-0.9 -4.6,0 -5.3,0.3 -8.1,3.7 z"
     id="path18"
     style="fill:currentColor;stroke:none;stroke-width:0.1" />
  <path
     d="m 146.5,136.8 -13.8,16.6 5.4,4.8 c 3,2.6 5.7,4.8 6,4.8 0.5,0 20.5,-23.4 26.3,-30.8 1.9,-2.4 1.9,-2.5 -0.1,-4.1 -1.2,-0.9 -3.8,-3 -6,-4.8 l -3.9,-3.2 z"
     id="path19"
     style="fill:currentColor;stroke:none;stroke-width:0.1" />
  <path
     d="m 49.5,124.4 c -3.2,1.4 -5.5,5.1 -5.5,8.9 0,1.5 -1.9,3.5 -6,6.5 -5.8,4.2 -6.9,6.2 -5.1,9 0.6,1 1,1 2.1,-0.3 0.7,-0.8 0.9,-1.5 0.5,-1.5 -0.4,0 -0.2,-0.6 0.5,-1.4 0.6,-0.8 1.8,-1.2 2.6,-0.9 0.8,0.3 3.4,-1.1 5.8,-3.1 3.7,-3 4.4,-4.1 4.3,-7 -0.1,-4.9 1.8,-6.8 6.7,-6.4 3.6,0.2 4,0 4.7,-2.5 0.7,-2.6 0.6,-2.7 -3.4,-2.7 -2.3,0.1 -5.6,0.7 -7.2,1.4 z"
     id="path20"
     style="fill:currentColor;stroke:none;stroke-width:0.1" />
  <path
     d="m 103.5,138.5 c 1.9,4.5 1.9,8.5 -0.1,11.3 -3.1,4.5 -6.2,2.1 -7.1,-5.7 C 96,141.3 95.4,139 95,139 c -0.4,0 -1.5,1.6 -2.5,3.6 -1.6,3.5 -1.6,4.9 0.1,13.1 0.5,2.5 0.2,3.3 -1.5,4.2 -3,1.7 -6.5,-2 -5.7,-6 0.6,-3.3 -0.4,-3.7 -2.6,-1.2 -2.5,2.8 -3,5.9 -1.8,10.5 2.7,9.9 10.2,15.3 20.6,14.6 5.2,-0.3 7,-0.9 10.1,-3.5 4.8,-3.8 7,-7.6 7.8,-13.3 l 0.6,-4.5 -1.6,2.7 c -1.6,2.9 -5.7,3.9 -7.1,1.7 -0.4,-0.6 -0.1,-3.5 0.6,-6.5 1.1,-4.3 1.1,-5.9 0,-8.5 -1.6,-3.7 -5.5,-8.5 -8.1,-9.9 -1.7,-1 -1.7,-0.8 -0.4,2.5 z"
     id="path21"
     style="fill:currentColor;stroke:none;stroke-width:0.1" />
</svg>
