<svg xmlns="http://www.w3.org/2000/svg" version="1.1" viewBox="0 0 420 400">
  <path fill="currentColor" d="
    M 208.00 16.00
    Q 217.88 16.00 220.95 16.28
    Q 270.91 20.90 308.68 50.42
    C 337.50 72.95 357.73 103.73 367.03 139.20
    A 1.19 1.18 80.9 0 0 368.23 140.08
    C 383.55 139.27 403.87 143.73 410.26 159.32
    Q 412.12 163.85 412.12 173.97
    Q 412.11 185.73 410.86 198.32
    C 408.94 217.74 402.97 240.63 386.81 252.53
    Q 379.84 257.65 369.48 259.24
    C 354.50 261.53 340.03 260.21 325.36 257.77
    A 0.76 0.75 21.4 0 1 324.85 256.61
    C 353.15 213.75 355.45 158.52 330.94 113.53
    C 307.62 70.73 264.69 43.38 215.74 40.35
    Q 214.23 40.25 208.00 40.25
    Q 201.76 40.26 200.25 40.35
    C 151.30 43.38 108.37 70.73 85.06 113.54
    C 60.55 158.53 62.85 213.76 91.15 256.62
    A 0.76 0.75 -21.4 0 1 90.64 257.78
    C 75.97 260.22 61.50 261.54 46.52 259.25
    Q 36.16 257.66 29.19 252.54
    C 13.03 240.64 7.06 217.75 5.14 198.33
    Q 3.89 185.74 3.88 173.98
    Q 3.88 163.86 5.74 159.33
    C 12.13 143.74 32.45 139.28 47.77 140.09
    A 1.19 1.18 -80.9 0 0 48.97 139.21
    C 58.27 103.74 78.49 72.96 107.31 50.42
    Q 145.08 20.90 195.04 16.28
    Q 198.11 16.00 208.00 16.00
    Z
  "/>
  <path fill="currentColor" d="
    M 208.01 82.89
    Q 208.28 82.89 208.38 82.66
    Q 213.71 70.34 217.60 61.17
    A 0.88 0.87 -75.9 0 1 218.49 60.63
    Q 232.83 61.88 246.02 66.31
    A 0.90 0.88 9.7 0 1 246.63 67.15
    L 246.63 90.75
    A 0.36 0.36 0.0 0 0 247.23 91.01
    L 264.42 75.06
    A 1.16 1.15 38.0 0 1 265.76 74.90
    Q 278.08 81.62 288.70 91.14
    A 0.69 0.69 0.0 0 1 288.87 91.94
    L 278.79 113.86
    A 0.40 0.39 2.6 0 0 279.28 114.39
    L 302.15 106.76
    A 1.24 1.23 -27.7 0 1 303.51 107.18
    Q 311.99 118.32 317.61 130.83
    A 0.91 0.90 57.5 0 1 317.38 131.89
    L 298.75 148.24
    A 0.41 0.41 0.0 0 0 298.99 148.95
    L 323.99 151.21
    A 0.97 0.96 -4.7 0 1 324.84 151.93
    Q 328.13 165.23 328.25 179.12
    A 0.61 0.61 0.0 0 1 327.83 179.70
    L 303.21 187.91
    A 0.19 0.19 0.0 0 0 303.18 188.26
    L 325.96 201.42
    A 0.60 0.59 -69.9 0 1 326.25 202.05
    Q 322.86 220.55 314.12 236.89
    A 1.73 1.71 4.3 0 1 313.14 237.72
    Q 266.30 253.47 208.62 272.67
    Q 208.59 272.67 208.23 272.67
    Q 207.86 272.67 207.84 272.67
    Q 150.11 253.60 103.24 237.96
    A 1.73 1.71 -4.5 0 1 102.26 237.13
    Q 93.48 220.81 90.05 202.32
    A 0.60 0.59 69.7 0 1 90.34 201.69
    L 113.09 188.47
    A 0.19 0.19 0.0 0 0 113.05 188.12
    L 88.42 179.97
    A 0.61 0.61 0.0 0 1 87.99 179.39
    Q 88.08 165.50 91.34 152.19
    A 0.97 0.96 4.6 0 1 92.19 151.47
    L 117.19 149.16
    A 0.41 0.41 0.0 0 0 117.42 148.44
    L 98.76 132.14
    A 0.91 0.90 -57.7 0 1 98.53 131.08
    Q 104.12 118.55 112.57 107.40
    A 1.24 1.23 27.6 0 1 113.93 106.97
    L 136.82 114.55
    A 0.40 0.39 -2.7 0 0 137.31 114.02
    L 127.18 92.12
    A 0.69 0.69 0.0 0 1 127.35 91.32
    Q 137.94 81.78 150.25 75.03
    A 1.16 1.15 -38.2 0 1 151.59 75.19
    L 168.82 91.10
    A 0.36 0.36 0.0 0 0 169.41 90.84
    L 169.36 67.24
    A 0.90 0.88 -9.9 0 1 169.97 66.40
    Q 183.15 61.94 197.49 60.65
    A 0.88 0.87 75.8 0 1 198.38 61.19
    Q 202.29 70.35 207.64 82.66
    Q 207.74 82.89 208.01 82.89
    Z
  "/>
  <path fill="currentColor" d="
    M 314.72 261.41
    L 208.42 367.71
    A 0.60 0.60 0.0 0 1 207.58 367.71
    L 101.31 261.43
    A 0.60 0.60 0.0 0 1 101.92 260.43
    L 207.82 295.73
    A 0.60 0.60 0.0 0 0 208.20 295.73
    L 314.11 260.41
    A 0.60 0.60 0.0 0 1 314.72 261.41
    Z
  "/>
</svg>